<svg width="184" height="158" viewBox="0 0 184 158" fill="none" xmlns="http://www.w3.org/2000/svg">
<g clip-path="url(#clip0_1_2)">
<path d="M149 4.74C144.24 14.74 139.483 24.74 134.73 34.74L133.97 34.44C134.095 33.7272 134.286 33.0275 134.54 32.35C139.307 22.17 144.127 12.0133 149 1.88C149.39 1.07 150.39 0.0899974 151.11 0.0799974C161.7 -0.0200026 172.3 0.0799974 182.89 0.0799974C183.03 0.0799974 183.18 0.299997 183.65 0.689997C183.001 0.945648 182.332 1.14635 181.65 1.29C174.16 2.22 170.73 5.96 170.02 14.29C169.71 18.06 169.53 21.86 169.52 25.65C169.48 61.27 169.48 96.89 169.52 132.51C169.52 135.633 169.72 138.753 170.12 141.85C171.12 149.73 174.34 153.09 181.47 154.06C181.827 154.088 182.174 154.192 182.487 154.365C182.801 154.537 183.075 154.774 183.29 155.06H136.14C136.62 154.55 136.74 154.31 136.87 154.3C147.27 153.51 148.87 147.12 149.52 138.71C149.94 133.16 149.83 127.56 149.83 121.98C149.79 84.12 149.737 46.2667 149.67 8.42V4.83L149 4.74Z" fill="white"/>
<path d="M0 154.42C2 153.99 4.08 153.74 6 153.11C16.71 149.65 22.45 140.81 25.24 129.52C26.7323 123.364 27.5041 117.055 27.54 110.72C27.77 78.56 27.68 46.4 27.6 14.23C27.5036 12.6737 26.9074 11.1901 25.9 9.99999C21.53 4.99999 16.37 1.58999 10 0.329987C10.6746 0.171072 11.3597 0.0607881 12.05 -1.30339e-05C22.14 -1.30339e-05 32.24 -0.060013 42.33 0.119987C43.0353 0.217345 43.7101 0.470715 44.3051 0.861661C44.9002 1.25261 45.4006 1.7713 45.77 2.37999C63.69 35 81.45 67.73 99.46 100.29C101.13 103.29 100.92 105.29 99.55 107.99C97.55 111.99 95.76 116.1 93.88 120.16C92.26 123.65 91.33 123.72 89.44 120.35C76.48 97.1833 63.5 74.0067 50.5 50.82C43.65 38.64 36.7 26.53 29.14 14.53C29.0124 15.2912 28.9289 16.0591 28.89 16.83C28.89 49.1 28.82 81.37 28.99 113.65C29.0258 118.763 29.6601 123.854 30.88 128.82C34.42 143.11 42 152.88 56 155H0.08L0 154.42Z" fill="white"/>
<path d="M53.88 71.56C56.53 76.27 59.12 80.49 61.29 84.95C61.88 86.19 61.38 88.21 61.12 89.82C59.0809 101.948 60.3168 114.4 64.7 125.89C71 142.25 81.15 153.89 97.57 156.55C110.07 158.55 121.2 154.04 131.19 145.69C132.27 144.79 133.34 143.87 134.42 142.95L135.09 143.78C134.141 144.83 133.14 145.831 132.09 146.78C122.38 154.71 111.34 158.02 99.47 157.95C87.6 157.88 76.3 155 66.36 147.19C53.11 136.8 47.02 122.19 46.25 104.45C45.8 94 47.48 84 52.12 74.8C52.59 73.86 53.12 73 53.88 71.56Z" fill="white"/>
<path d="M133.41 42.19V80.19C130.46 67.31 124.29 57.19 113.49 51.32C102.69 45.45 91.79 45.76 80.78 51.17L80.54 50C81.21 49.66 81.88 49.26 82.54 49C92.87 45 103.33 45.6 113.84 47.91C117.46 48.71 121.06 49.61 124.67 50.45C130.45 51.81 131.67 50.81 132.6 44.21C132.68 43.58 132.74 42.95 132.82 42.31L133.41 42.19Z" fill="white"/>
<path d="M110.5 83.64C112.5 79.36 114.5 75.0833 116.5 70.81L117.26 71.26L111.16 84L110.5 83.64Z" fill="white"/>
</g>
<defs>
<clipPath id="clip0_1_2">
<rect width="183.6" height="157.95" fill="white"/>
</clipPath>
</defs>
</svg>
