<svg width="25" height="25" viewBox="0 0 25 25" fill="none" xmlns="http://www.w3.org/2000/svg">
<g clip-path="url(#clip0_117_634)">
<path d="M15.6248 13.5418C15.0488 13.5418 14.5832 14.0086 14.5832 14.5834V18.7502C14.5832 19.3241 14.1165 19.7918 13.5415 19.7918H10.4165V4.16693C10.4165 3.27735 9.84983 2.48256 8.99782 2.18674L8.68941 2.08355H13.5415C14.1165 2.08355 14.5832 2.55123 14.5832 3.12533V6.2503C14.5832 6.82517 15.0488 7.29189 15.6248 7.29189C16.2008 7.29189 16.6664 6.82517 16.6664 6.2503V3.12533C16.6664 1.40244 15.2643 0.000366211 13.5415 0.000366211H2.34373C2.30405 0.000366211 2.27087 0.0181044 2.23234 0.0232541C2.18217 0.019058 2.1343 0.000366211 2.08337 0.000366211C0.9344 0.000366211 0 0.934576 0 2.08355V20.8334C0 21.7229 0.566667 22.5177 1.41867 22.8135L7.68749 24.9032C7.89996 24.9688 8.1113 25.0001 8.33331 25.0001C9.48228 25.0001 10.4165 24.0657 10.4165 22.9167V21.8751H13.5415C15.2643 21.8751 16.6664 20.4731 16.6664 18.7502V14.5834C16.6664 14.0086 16.2008 13.5418 15.6248 13.5418Z" fill="#173F35"/>
<path d="M24.6946 9.68039L20.5279 5.51383C20.2301 5.21591 19.7821 5.12626 19.3926 5.28762C19.0041 5.44917 18.7498 5.8293 18.7498 6.25025V9.37522H14.5833C14.0082 9.37522 13.5415 9.84175 13.5415 10.4168C13.5415 10.9919 14.0082 11.4584 14.5833 11.4584H18.7498V14.5834C18.7498 15.0043 19.0041 15.3844 19.3926 15.546C19.7821 15.7074 20.2301 15.6177 20.5279 15.32L24.6946 11.1532C25.1018 10.746 25.1018 10.0876 24.6946 9.68039Z" fill="#173F35"/>
</g>
<defs>
<clipPath id="clip0_117_634">
<rect width="25" height="25" fill="white"/>
</clipPath>
</defs>
</svg>
